Coordinates
version=1
nRows=16
nColumns=33
inDegrees=yes

Units are S.I. units (second, meters, Newtons, ...)
Angles are in degrees.

endheader
time	ground_thorax_rot_x	ground_thorax_rot_y	ground_thorax_rot_z	ground_thorax_tx	ground_thorax_ty	ground_thorax_tz	clav_prot_r	clav_elev_r	scapula_abduction_r	scapula_elevation_r	scapula_upward_rot_r	scapula_winging_r	shoulder_elv_r	plane_of_elev_r	axial_rot_r	elbow_flexion_r	pro_sup_r	wrist_flex_r	wrist_dev_r	clav_prot_l	clav_elev_l	scapula_abduction_l	scapula_elevation_l	scapula_upward_rot_l	scapula_winging_l	shoulder_elv_l	plane_of_elev_l	axial_rot_l	elbow_flexion_l	pro_sup_l	wrist_flex_l	wrist_dev_l
      8.57000000	    -40.72725093	    -12.65122562	      8.29367575	    -85.51305715	    798.84319288	     -5.26353183	      7.43683969	    -45.00000000	     36.52705974	    -45.00000000	    -33.67166543	  -2970.23361277	  -2095.00315959	     28.99099536	     81.73720909	    370.70172011	     28.20421529	     17.77302081	      9.49159144	     18.09121047	     41.14370455	    -42.34856438	    -45.00000000	    -42.54402929	   2238.18121971	  -2812.20220992	     24.04372902	    -27.20018921	   2165.97164131	     22.28844111	     11.00257268	    -19.21166221
      8.58000000	    -40.72609047	    -13.17337466	      8.95985640	    -91.38057814	    798.96879295	     -5.88571765	      7.56260736	    -45.00000000	     35.86103457	    -45.00000000	    -35.53047332	  -2970.47071529	  -2094.65745483	     29.02917386	     82.28871799	    370.99560425	     30.07758704	     17.86963174	      9.29330175	     18.06278997	     40.88201141	    -41.91322190	    -45.00000000	    -43.31725960	   2238.49868233	  -2812.09209283	     23.93248684	    -28.15899208	   2166.08413796	     22.71880255	     10.97790488	    -19.29709013
      8.59000000	    -40.69614903	    -13.70842407	      9.58689949	    -97.27616265	    799.18235254	     -6.48753498	      7.79724676	    -45.00000000	     35.36709781	    -45.00000000	    -37.09902217	  -2970.85422574	  -2094.39665206	     29.05827501	     83.30762674	    371.22891485	     31.91632647	     17.87694747	      8.96627590	     17.99506292	     40.53622202	    -41.44920979	    -45.00000000	    -44.01868289	   2238.74469943	  -2811.98161322	     23.70333150	    -29.06649800	   2166.23588196	     23.09505840	     11.06726066	    -19.42518217
      8.60000000	    -40.73499732	    -14.03379053	     10.07279753	   -103.17780976	    799.49364896	     -7.06586641	      7.85505023	    -45.00000000	     34.86715988	    -45.00000000	    -38.61763507	  -2971.11386972	  -2094.18908770	     29.01832128	     83.74478835	    371.40107052	     33.79362642	     18.00195359	      8.93255250	     17.86427480	     40.27678024	    -41.14893793	    -45.00000000	    -44.77807523	   2239.02323133	  -2811.79309140	     23.57355262	    -29.85936747	   2166.31444751	     23.50203197	     10.98278243	    -19.50793257
      8.61000000	    -40.77661004	    -14.11773182	     10.26182698	   -109.06437726	    799.91966989	     -7.62200494	      7.89467403	    -45.00000000	     34.32149436	    -45.00000000	    -40.07318838	  -2971.29737735	  -2093.79389425	     29.12324119	     83.61356216	    371.72390236	     35.83380225	     18.19147129	      8.91305418	     17.70321921	     40.31530867	    -40.81659246	    -45.00000000	    -45.00000000	   2239.23221235	  -2811.71305151	     23.29394774	    -30.74343222	   2166.47893201	     23.95295944	     10.95706425	    -19.65609612
      8.62000000	    -40.83280883	    -14.26312532	     10.46593927	   -114.91936598	    800.44732920	     -8.14942161	      8.04155524	    -45.00000000	     33.94158342	    -45.00000000	    -41.26259301	  -2971.60337883	  -2093.62846909	     29.15134984	     84.11051641	    371.96638343	     37.94571884	     18.26733750	      8.72951291	     17.55424604	     40.21385819	    -40.38428252	    -45.00000000	    -45.00000000	   2239.49372225	  -2811.67534693	     22.97311480	    -31.92937326	   2166.60416154	     24.42393012	     10.97385751	    -19.78125438
      8.63000000	    -40.84700254	    -14.43684271	     10.74583478	   -120.71494044	    801.12297060	     -8.66229208	      8.77739419	    -45.00000000	     33.78858872	    -45.00000000	    -41.39879307	  -2972.38960930	  -2093.79465036	     28.99590649	     86.90320167	    372.24590376	     39.78127073	     18.13202969	      8.32722105	     17.76994856	     39.90649582	    -39.89402429	    -45.00000000	    -45.00000000	   2239.43495107	  -2811.31968260	     22.25757982	    -34.02148173	   2166.92338187	     24.98014195	     10.89782456	    -19.92949381
      8.64000000	    -40.98938945	    -14.47745901	     10.83628427	   -126.38116550	    801.94476671	     -9.14916866	      8.27846698	    -45.00000000	     33.26863872	    -45.00000000	    -43.25243680	  -2972.25527044	  -2093.31307352	     29.06341338	     85.44596613	    372.53933533	     41.60171293	     18.36153692	      8.27152994	     17.33282449	     40.11593809	    -39.65033940	    -45.00000000	    -45.00000000	   2239.97233588	  -2811.56247133	     22.22987073	    -34.29197445	   2166.87754622	     25.45621889	     11.00458459	    -20.06867519
      8.65000000	    -41.05968601	    -14.50516362	     10.97255318	   -131.88731857	    802.88295257	     -9.60324496	      8.66282070	    -45.00000000	     33.08625986	    -45.00000000	    -43.57288091	  -2972.85751605	  -2093.39001564	     28.99011698	     87.17271172	    372.80039771	     42.99187728	     18.29748554	      7.96191823	     17.40426867	     39.88698373	    -39.26829125	    -45.00000000	    -45.00000000	   2239.93518047	  -2811.26416352	     21.65968233	    -35.92444218	   2167.09298911	     26.12747212	     10.95997314	    -20.22706437
      8.66000000	    -41.20344713	    -14.42464248	     10.90468204	   -137.22677616	    803.92524156	    -10.02124538	      8.48805560	    -45.00000000	     32.72397667	    -45.00000000	    -45.00000000	  -2972.77412364	  -2093.02014976	     29.08888493	     85.95107183	    372.91732885	     44.08524925	     18.56527878	      8.07300332	     17.09401793	     39.94093348	    -38.93961994	    -45.00000000	    -45.00000000	   2240.45050491	  -2811.42766762	     21.69147713	    -36.67167933	   2167.20593834	     26.85686602	     10.85945742	    -20.34228601
      8.67000000	    -41.30710592	    -14.39700193	     11.00510368	   -142.39197430	    805.04388821	    -10.40129812	      8.76344005	    -45.00000000	     32.61989104	    -45.00000000	    -45.00000000	  -2973.40904042	  -2093.25261495	     28.95556025	     88.09212586	    373.09938812	     44.77573966	     18.50875737	      7.82516408	     17.28022536	     39.54587257	    -38.57418120	    -45.00000000	    -45.00000000	   2240.45095597	  -2811.09094190	     21.14520191	    -38.25269153	   2167.52779777	     27.68418640	     10.69945465	    -20.51802722
      8.68000000	    -41.31277460	    -14.11251743	     10.84520872	   -147.37715248	    806.22499392	    -10.74231609	      8.69231254	    -45.00000000	     32.52727539	    -45.00000000	    -45.00000000	  -2973.64657313	  -2093.01604466	     28.73457716	     87.81783220	    373.21837585	     45.10214604	     18.57411247	      7.71150335	     16.99484088	     39.77992694	    -38.38938955	    -45.00000000	    -45.00000000	   2240.60534102	  -2811.19712300	     20.94856182	    -39.28164373	   2167.64515895	     28.55418933	     10.68314388	    -20.67593065
      8.69000000	    -41.42679091	    -13.93185826	     10.79613920	   -152.17414790	    807.44262178	    -11.04360850	      8.75252688	    -45.00000000	     32.37114082	    -45.00000000	    -45.00000000	  -2974.09420528	  -2093.14577666	     28.63896627	     88.83746358	    373.29291767	     45.26580246	     18.55895304	      7.56158994	     16.92800147	     39.68573526	    -38.15597392	    -45.00000000	    -45.00000000	   2240.82875911	  -2811.12247328	     20.68696753	    -40.79244031	   2167.85553962	     29.48469944	     10.43009009	    -20.77164893
      8.70000000	    -41.49914338	    -13.70862889	     10.69055782	   -156.77642572	    808.67812534	    -11.30466468	      8.77919612	    -45.00000000	     32.30775136	    -45.00000000	    -45.00000000	  -2974.38816465	  -2093.12044265	     28.47752319	     89.24527773	    373.33714936	     45.24121572	     18.60107410	      7.49740377	     16.81915613	     39.60300125	    -37.94721653	    -45.00000000	    -45.00000000	   2241.01426720	  -2811.06182579	     20.42972631	    -41.82495527	   2168.12547164	     30.40762782	     10.28846641	    -20.93110646
      8.71000000	    -41.56608248	    -13.49293026	     10.60059542	   -161.17985778	    809.90964823	    -11.52492988	      8.76825251	    -45.00000000	     32.26013484	    -45.00000000	    -45.00000000	  -2974.68562296	  -2093.10790348	     28.28446129	     89.68419366	    373.39335658	     45.10437743	     18.63501724	      7.43341892	     16.73993849	     39.51723426	    -37.75115268	    -45.00000000	    -45.00000000	   2241.17084926	  -2811.03796252	     20.19907338	    -42.70603693	   2168.27949590	     31.33772762	     10.14065053	    -21.05055676
      8.72000000	    -41.57621599	    -13.27239667	     10.47099424	   -165.37693708	    811.11540464	    -11.70347755	      8.85452186	    -45.00000000	     32.23655394	    -45.00000000	    -45.00000000	  -2974.90007832	  -2092.98740058	     28.13288360	     89.90771328	    373.51245504	     44.84613155	     18.72107323	      7.42540592	     16.72486985	     39.18872071	    -37.32798322	    -45.00000000	    -45.00000000	   2241.04593447	  -2810.90019919	     20.00895603	    -43.02562973	   2168.41013832	     32.27049359	     10.11703104	    -21.22152483
